<svg xmlns="http://www.w3.org/2000/svg" viewBox="0 0 24 24" width="24" height="24">
  <path d="M6 2h8l4 4v14a2 2 0 0 1-2 2H6a2 2 0 0 1-2-2V4a2 2 0 0 1 2-2z" fill="#4A90D9"/>
  <path d="M14 2l4 4h-4V2z" fill="#2A6099"/>

  <rect x="8" y="8.2" width="1.8" height="1.8" fill="#6BBF59"/>
  <rect x="10" y="8.2" width="1.8" height="1.8" fill="#A7DCA2"/>
  <rect x="12" y="8.2" width="1.8" height="1.8" fill="#6BBF59"/>

  <rect x="8" y="10.2" width="1.8" height="1.8" fill="#A7DCA2"/>
  <rect x="10" y="10.2" width="1.8" height="1.8" fill="#6BBF59"/>
  <rect x="12" y="10.2" width="1.8" height="1.8" fill="#A7DCA2"/>

  <rect x="8" y="12.2" width="1.8" height="1.8" fill="#6BBF59"/>
  <rect x="10" y="12.2" width="1.8" height="1.8" fill="#A7DCA2"/>
  <rect x="12" y="12.2" width="1.8" height="1.8" fill="#6BBF59"/>
  
  <!-- label -->
  <rect x="4" y="15" width="14" height="4" fill="#6BBF59"/>
  <text x="15.5" y="18.5" text-anchor="end" font-size="4" fill="white" font-family="sans-serif">MCA</text>
</svg>
